<svg width="20" height="20" viewBox="0 0 20 20" fill="none" xmlns="http://www.w3.org/2000/svg">
<g id="vuesax/linear/setting-4">
<g id="setting-4">
<path id="Vector" d="M18.3333 5.41666H13.3333" stroke="white" stroke-width="1.5" stroke-miterlimit="10" stroke-linecap="round" stroke-linejoin="round"/>
<path id="Vector_2" d="M5.00002 5.41666H1.66669" stroke="white" stroke-width="1.5" stroke-miterlimit="10" stroke-linecap="round" stroke-linejoin="round"/>
<path id="Vector_3" d="M8.33335 8.33333C9.94418 8.33333 11.25 7.0275 11.25 5.41667C11.25 3.80584 9.94418 2.5 8.33335 2.5C6.72252 2.5 5.41669 3.80584 5.41669 5.41667C5.41669 7.0275 6.72252 8.33333 8.33335 8.33333Z" stroke="white" stroke-width="1.5" stroke-miterlimit="10" stroke-linecap="round" stroke-linejoin="round"/>
<path id="Vector_4" d="M18.3333 14.5833H15" stroke="white" stroke-width="1.5" stroke-miterlimit="10" stroke-linecap="round" stroke-linejoin="round"/>
<path id="Vector_5" d="M6.66669 14.5833H1.66669" stroke="white" stroke-width="1.5" stroke-miterlimit="10" stroke-linecap="round" stroke-linejoin="round"/>
<path id="Vector_6" d="M11.6667 17.5C13.2775 17.5 14.5833 16.1942 14.5833 14.5833C14.5833 12.9725 13.2775 11.6667 11.6667 11.6667C10.0558 11.6667 8.75 12.9725 8.75 14.5833C8.75 16.1942 10.0558 17.5 11.6667 17.5Z" stroke="white" stroke-width="1.5" stroke-miterlimit="10" stroke-linecap="round" stroke-linejoin="round"/>
</g>
</g>
</svg>
